<svg width="57" height="57" viewBox="0 0 57 57" fill="none" xmlns="http://www.w3.org/2000/svg">
<path d="M28.4433 13.207C31.1109 12.9448 33.0603 12.0214 34.4226 11.0353C35.1693 10.4938 35.9502 9.88957 36.5658 9.21697C37.1529 8.31067 37.5747 7.58107 38.0022 6.84007C38.3955 6.17317 38.6805 5.27827 38.9712 4.11547C39.1821 3.26047 39.3531 2.38267 39.3531 1.35667V0.570068C36.771 0.803768 34.719 1.77277 33.3396 2.74177C32.5473 3.29467 31.8405 3.88177 31.1679 4.56007C30.672 5.26117 30.1704 6.02497 29.7315 6.93697C29.3496 7.72927 29.0133 8.55007 28.7625 9.72427C28.5687 10.6363 28.4376 11.4514 28.4376 12.3634V13.207H28.4433Z" fill="#ECE6E3"/>
<path d="M6.50961 32.1824C6.48681 32.9177 6.52671 33.7613 6.59511 34.5878C6.93711 38.6633 7.99161 42.9782 10.2602 47.1107C12.1298 50.5136 13.6859 52.9532 15.3047 54.3212C16.9691 55.7348 18.5309 56.4302 19.9958 56.4302C23.1023 56.4302 26.6534 53.5574 29.5547 53.5574C32.3135 53.5574 35.0951 56.4302 38.0021 56.4302C39.5582 56.4302 41.006 55.8773 42.4025 54.8456C43.9073 53.7341 45.0815 52.3604 46.2443 50.7416C46.7231 50.0747 47.1335 49.3679 47.6237 48.4559C48.4217 46.9682 49.3223 44.8478 50.4965 42.2714V41.8895C46.2158 40.3049 43.1378 35.9387 43.1378 31.0994C43.1378 28.8422 43.6508 26.8415 44.7509 25.0574C45.9137 23.1707 47.39 21.8597 49.1513 20.8907C46.5122 17.3111 42.3797 15.2876 39.1535 15.2876C35.5169 15.2876 30.4154 17.8697 28.8878 17.8697C27.3317 17.8697 24.02 15.4928 19.6481 15.4928C16.8038 15.4928 12.9791 16.6499 10.0892 19.802C8.16831 21.8996 7.27911 25.0859 6.74901 28.8023C6.57231 29.9879 6.54381 31.0082 6.50961 32.1824Z" fill="#ECE6E3"/>
</svg>
