<svg width="380" height="380" viewBox="0 0 380 380" fill="none" xmlns="http://www.w3.org/2000/svg">
<rect width="380" height="380" rx="84" fill="#EDE7E4"/>
<path d="M258.713 101.163C266.527 101.163 279.731 101.163 279.731 101.163V81H257.904C229.341 81 207.784 100.088 207.784 133.425V158.696H184.341C135.299 158.696 100 185.58 100 229.94C100 271.342 131.527 295 165.479 295C182.994 295 199.97 288.817 209.671 279.945V293.387H231.228V178.053C253.593 178.053 274.88 178.053 274.88 178.053V158.158H231.228V131.274C231.228 112.724 241.198 101.163 258.713 101.163ZM207.784 258.975C198.623 268.653 185.15 275.374 168.174 275.374C142.844 275.374 124.79 256.286 124.79 229.402C124.79 198.754 151.467 177.784 182.725 177.784C185.15 177.784 195.12 177.784 207.784 177.784V258.975Z" fill="black"/>
</svg>
