<svg width="16" height="16" viewBox="0 0 16 16" fill="none" xmlns="http://www.w3.org/2000/svg">
<path d="M10.326 12.9526C10.1534 13.0382 8.02397 12.9883 6.98086 12.9526C6.65714 12.6316 4.9306 8.9938 4.9306 7.60286C4.9306 6.21192 5.90178 4.5 6.11759 4.5C6.33341 4.5 10.5418 12.8456 10.326 12.9526Z" fill="black"/>
<path d="M4.92977 11.4292C4.92977 10.3827 3.92529 8.49902 3.47886 8.49902C3.25603 8.49902 2.14034 10.3827 2.02889 10.592C1.91745 10.8013 0.577921 12.999 1.13507 12.999H4.48334C4.70655 12.999 4.92977 12.4757 4.92977 11.4292Z" fill="black"/>
<path d="M14.9926 12.9526C14.82 13.0382 12.6906 12.9883 11.6475 12.9526C11.3238 12.6316 9.59723 8.9938 9.59723 7.60286C9.59723 6.21192 10.5684 4.5 10.7842 4.5C11 4.5 15.2085 12.8456 14.9926 12.9526Z" fill="black"/>
</svg>
