<svg width="160" height="19" viewBox="0 0 160 19" fill="none" xmlns="http://www.w3.org/2000/svg">
<path d="M6 7H11V19H6V7Z" fill="url(#paint0_linear)"/>
<path fill-rule="evenodd" clip-rule="evenodd" d="M20 7H14V13V19H20V13L26 13V7H20Z" fill="url(#paint1_linear)"/>
<path d="M0 0H26V6H0V0Z" fill="url(#paint2_linear)"/>
<path d="M32 0.308504H47.9849V4.60382H42.6217V17.7034H37.3631V4.60382H32V0.308504Z" fill="black"/>
<path d="M66.7817 0.308504V17.7034H61.8365V8.15162L55.4635 17.7034H50.5067V0.308504H55.4635V9.93144L61.8714 0.308504H66.7817Z" fill="black"/>
<path d="M70.3599 0.308504H77.2786L79.9485 10.8926L82.6069 0.308504H89.5023V17.7034H85.2071V4.43771L81.8755 17.7034H77.9867L74.6667 4.43771V17.7034H70.3599V0.308504Z" fill="black"/>
<path d="M99.233 2.39684V0.166117H101.346V2.39684C103.513 2.51549 105.223 3.18392 106.477 4.40211C107.73 5.61239 108.357 7.11931 108.357 8.92287C108.357 10.6869 107.75 12.1859 106.535 13.4199C105.32 14.6539 103.59 15.3342 101.346 15.4608V17.7034H99.233V15.4608C97.2208 15.3817 95.5453 14.7568 94.2065 13.586C92.8676 12.4074 92.1982 10.853 92.1982 8.92287C92.1982 6.98484 92.8638 5.43441 94.1949 4.27159C95.5337 3.10877 97.2131 2.48385 99.233 2.39684ZM101.346 4.36651V13.4792C102.801 13.408 103.946 12.9769 104.782 12.1859C105.618 11.3949 106.036 10.3072 106.036 8.92287C106.036 7.56229 105.625 6.48649 104.805 5.69545C103.985 4.89651 102.832 4.45353 101.346 4.36651ZM99.233 4.37838C97.8322 4.44166 96.6984 4.86487 95.8317 5.64799C94.9649 6.43111 94.5315 7.52274 94.5315 8.92287C94.5315 10.3072 94.9572 11.3949 95.8085 12.1859C96.6675 12.9769 97.809 13.4041 99.233 13.4674V4.37838Z" fill="black"/>
<path d="M110.6 9.23138C110.6 6.3441 111.359 4.0857 112.876 2.45616C114.393 0.818721 116.35 0 118.75 0C120.321 0 121.737 0.383652 122.998 1.15096C124.26 1.91826 125.219 2.99011 125.877 4.36651C126.543 5.735 126.875 7.28939 126.875 9.02966C126.875 10.7937 126.527 12.3718 125.831 13.764C125.134 15.1562 124.148 16.2123 122.871 16.9321C121.594 17.644 120.216 18 118.738 18C117.136 18 115.704 17.6045 114.443 16.8134C113.181 16.0224 112.226 14.9427 111.576 13.5742C110.925 12.2057 110.6 10.7581 110.6 9.23138ZM112.922 9.26697C112.922 11.3632 113.472 13.0165 114.571 14.2268C115.677 15.4291 117.062 16.0303 118.726 16.0303C120.421 16.0303 121.814 15.4212 122.905 14.203C124.004 12.9848 124.554 11.2564 124.554 9.0178C124.554 7.60185 124.318 6.36783 123.846 5.31576C123.381 4.25577 122.696 3.43705 121.791 2.85959C120.893 2.27423 119.883 1.98154 118.761 1.98154C117.167 1.98154 115.793 2.54318 114.64 3.66645C113.495 4.78181 112.922 6.64865 112.922 9.26697Z" fill="black"/>
<path d="M129.908 17.7034V0.308504H136.328C137.457 0.308504 138.32 0.363876 138.916 0.474621C139.752 0.617007 140.452 0.889914 141.017 1.29334C141.582 1.68886 142.035 2.24654 142.376 2.96638C142.724 3.68622 142.898 4.47726 142.898 5.33949C142.898 6.81872 142.437 8.07251 141.517 9.10086C140.596 10.1213 138.932 10.6315 136.525 10.6315H132.16V17.7034H129.908ZM132.16 8.57877H136.56C138.015 8.57877 139.048 8.30191 139.659 7.74819C140.271 7.19446 140.576 6.41529 140.576 5.41068C140.576 4.68293 140.394 4.06196 140.031 3.54779C139.675 3.02571 139.203 2.68161 138.614 2.51549C138.235 2.41266 137.535 2.36124 136.513 2.36124H132.16V8.57877Z" fill="black"/>
<path d="M157.748 11.6045L160 12.1859C159.528 14.0765 158.677 15.5201 157.446 16.5168C156.223 17.5056 154.726 18 152.954 18C151.12 18 149.626 17.6203 148.473 16.8609C147.327 16.0936 146.453 14.9862 145.849 13.5386C145.253 12.091 144.955 10.5366 144.955 8.87541C144.955 7.06394 145.292 5.48583 145.965 4.14107C146.646 2.7884 147.61 1.76401 148.856 1.0679C150.11 0.363876 151.487 0.0118655 152.988 0.0118655C154.691 0.0118655 156.123 0.454845 157.284 1.3408C158.444 2.22676 159.253 3.47264 159.71 5.07844L157.493 5.61239C157.098 4.34674 156.525 3.42518 155.775 2.84773C155.024 2.27027 154.08 1.98154 152.942 1.98154C151.634 1.98154 150.539 2.30191 149.657 2.94265C148.782 3.58339 148.167 4.44562 147.811 5.52933C147.455 6.60514 147.277 7.71655 147.277 8.86355C147.277 10.3428 147.486 11.6361 147.904 12.7436C148.33 13.8431 148.987 14.6658 149.877 15.2116C150.767 15.7574 151.731 16.0303 152.768 16.0303C154.029 16.0303 155.097 15.6585 155.972 14.915C156.846 14.1714 157.438 13.0679 157.748 11.6045Z" fill="black"/>
<defs>
<linearGradient id="paint0_linear" x1="4.5" y1="19" x2="12" y2="19" gradientUnits="userSpaceOnUse">
<stop stop-color="#560B0D"/>
<stop offset="1" stop-color="#C25050"/>
</linearGradient>
<linearGradient id="paint1_linear" x1="12.8" y1="19" x2="24.2" y2="19" gradientUnits="userSpaceOnUse">
<stop stop-color="#560B0D"/>
<stop offset="1" stop-color="#C25050"/>
</linearGradient>
<linearGradient id="paint2_linear" x1="1.18182" y1="6" x2="20.6818" y2="6" gradientUnits="userSpaceOnUse">
<stop stop-color="#560B0D"/>
<stop offset="1" stop-color="#C25050"/>
</linearGradient>
</defs>
</svg>
