<svg width="58" height="57" viewBox="0 0 58 57" fill="none" xmlns="http://www.w3.org/2000/svg">
<path d="M5.77429 6.62607V50.378C5.77459 50.4729 5.80297 50.5657 5.85589 50.6446C5.90881 50.7235 5.9839 50.785 6.07176 50.8215C6.15961 50.858 6.25631 50.8678 6.34974 50.8497C6.44317 50.8316 6.52916 50.7864 6.59693 50.7198L29.4377 28.5032L6.59693 6.28429C6.52916 6.21765 6.44317 6.17244 6.34974 6.15435C6.25631 6.13625 6.15961 6.14607 6.07176 6.18257C5.9839 6.21907 5.90881 6.28063 5.85589 6.35953C5.80297 6.43842 5.77459 6.53115 5.77429 6.62607Z" fill="#ECE6E3"/>
<path d="M39.0144 19.3709L10.3751 3.63359L10.3572 3.62357C9.86386 3.35639 9.39506 4.02213 9.79912 4.40955L32.2492 25.8202L39.0144 19.3709Z" fill="#ECE6E3"/>
<path d="M9.80153 52.5923C9.39523 52.9797 9.86404 53.6454 10.3596 53.3783L10.3775 53.3682L39.0146 37.6309L32.2494 31.1794L9.80153 52.5923Z" fill="#ECE6E3"/>
<path d="M50.5763 25.7158L42.5788 21.3228L35.059 28.499L42.5788 35.6718L50.5763 31.2822C52.7518 30.0832 52.7518 26.9148 50.5763 25.7158Z" fill="#ECE6E3"/>
</svg>
